<svg width="1093" height="443" viewBox="0 0 1093 443" fill="none" xmlns="http://www.w3.org/2000/svg">
<rect width="1093" height="443" fill="#6D5DE3"/>
<path d="M150.319 262.683L120.186 245.281V152.171L240.007 83L270.14 100.371L230.763 123.021L320.657 174.755V222.256L290.254 239.76V192.294L200.462 140.49L150.354 169.371L150.319 262.683Z" fill="url(#paint0_linear)"/>
<path d="M249.25 122.741L279.395 105.36L360.01 151.944L359.951 290.301L329.834 307.7L329.925 262.273L240.154 314.221L199.027 290.451L199.083 255.371L240.182 279.119L329.96 227.298L330.027 169.458L249.25 122.741Z" fill="url(#paint1_linear)"/>
<path d="M320.556 277.793L320.668 312.591L240.192 359.416L120.143 290.637L120 255.857L159.381 278.5L158.887 174.787L199.947 150.894L230.368 168.37L189.339 192.245L189.721 295.906L239.884 324.692L320.556 277.793Z" fill="url(#paint2_linear)"/>
<path d="M577.451 119C587.93 119 596.146 122.147 601.505 127.472C605.911 132.192 608.411 138.365 608.411 145.748L608.408 146.442C608.236 159.789 600.424 167.933 589.393 171.42L588.645 171.648L611.15 203.721H593.765L573.284 174.19L562.533 174.187L570.077 160.995L576.38 160.997C586.62 160.997 593.222 155.796 593.516 147.426L593.527 146.837L593.524 146.272C593.378 137.283 587.087 132.555 576.261 132.555H554.946L554.944 158.745L554.932 158.743V177.636L554.944 177.63L554.946 203.721H540.3V119H577.451Z" fill="white"/>
<path d="M752.872 119C767.252 119 776.284 123.048 784.841 130.311L775.571 141.385C769.153 135.908 762.736 132.574 752.277 132.574C737.065 132.574 725.299 145.909 725.299 161.864L725.306 162.856C725.632 179.616 736.839 191.869 753.585 191.869C761.547 191.869 768.559 189.369 773.67 185.558V170.08L787.812 157.221V192.226C779.493 199.251 767.846 205.205 753.109 205.205C727.082 205.205 709.968 186.63 709.968 162.34L709.974 161.343C710.354 138.338 727.95 119 752.872 119ZM842.719 119C868.271 119 886.098 138.408 886.098 161.864L886.092 162.854C885.709 185.862 867.759 205.205 842.482 205.205C816.93 205.205 799.103 185.797 799.103 162.34L799.109 161.351C799.492 138.342 817.442 119 842.719 119ZM483.882 119.833L520.486 203.776L505.605 203.775L476.87 137.336L448.343 203.775L433.728 203.776L470.333 119.833H483.882ZM670.986 119.833L707.591 203.776L692.71 203.775L663.974 137.336L635.448 203.775L620.833 203.776L657.438 119.833H670.986ZM914.632 120.429L959.2 178.057V120.429H973.58V203.776H961.339L915.464 144.48V203.776H901.084V120.429H914.632ZM842.482 132.574C825.962 132.574 814.434 145.671 814.434 161.864L814.441 162.815C814.778 178.685 826.326 191.631 842.719 191.631C859.239 191.631 870.767 178.534 870.767 162.34L870.76 161.39C870.423 145.52 858.875 132.574 842.482 132.574Z" fill="white"/>
<rect x="704.532" y="244.429" width="14.706" height="83.8242" fill="#67F9D9"/>
<path d="M472.749 328.25C487.994 328.25 497.728 322.728 506.054 313.681L496.79 304.282C489.753 310.861 483.186 314.856 473.218 314.856C457.661 314.856 446.356 302.074 446.132 286.2L446.128 285.483C446.128 269.387 457.621 256.581 473.101 256.581C482.6 256.581 489.519 260.575 496.203 266.685L505.468 255.993C497.611 248.474 488.463 243.187 473.218 243.187C448.721 243.187 431.35 261.957 431.005 285.018L431 285.953C431 309.569 448.825 328.25 472.749 328.25Z" fill="#67F9D9"/>
<path d="M692.759 328.371L656.155 244.429H642.606L606.001 328.371L620.617 328.371L649.143 261.932L677.878 328.371L692.759 328.371Z" fill="#67F9D9"/>
<path fill-rule="evenodd" clip-rule="evenodd" d="M522.177 244.429H536.883V328.253H522.177V244.429ZM579.531 244.429H594.237V328.253H579.531V294.429H543.501L551.589 279.723L579.531 279.723V244.429Z" fill="#67F9D9"/>
<path d="M796.471 302.057L751.904 244.429H738.355V327.776H752.736V268.481L798.611 327.776H810.852V244.429H796.471V302.057Z" fill="#67F9D9"/>
<defs>
<linearGradient id="paint0_linear" x1="205.197" y1="154.456" x2="309.633" y2="233.241" gradientUnits="userSpaceOnUse">
<stop stop-color="#67F9D9"/>
<stop offset="1" stop-color="#67F9D9" stop-opacity="0"/>
</linearGradient>
<linearGradient id="paint1_linear" x1="305.969" y1="214.919" x2="202.4" y2="278.52" gradientUnits="userSpaceOnUse">
<stop stop-color="#67F9D9"/>
<stop offset="1" stop-color="#67F9D9" stop-opacity="0"/>
</linearGradient>
<linearGradient id="paint2_linear" x1="178.631" y1="288.207" x2="196.24" y2="153.794" gradientUnits="userSpaceOnUse">
<stop stop-color="#67F9D9"/>
<stop offset="1" stop-color="#67F9D9" stop-opacity="0"/>
</linearGradient>
</defs>
</svg>
