<svg width="173" height="62" viewBox="0 0 173 62" fill="none" xmlns="http://www.w3.org/2000/svg">
<path d="M13.5875 29.9759L31.6665 40.6497V0L13.5875 29.9759Z" fill="#E6ECF2"/>
<path d="M31.6666 0V40.6497L49.7385 29.9759L31.6666 0Z" fill="#CCD9E6"/>
<path d="M13.5875 33.3989L31.6665 58.8511V44.0727L13.5875 33.3989Z" fill="#8CA9C6"/>
<path d="M31.6666 44.0727V58.8511L49.7528 33.3989L31.6666 44.0727Z" fill="#336699"/>
<g opacity="0.25">
<path d="M31.6665 21.7594L13.5875 29.976L31.6665 40.6497L49.7384 29.976L31.6665 21.7594Z" fill="#004080"/>
</g>
<path fill-rule="evenodd" clip-rule="evenodd" d="M35.859 18.2854C34.5368 17.7635 33.1128 17.4908 31.6747 17.4908C28.6521 17.4908 25.8089 18.6791 23.6691 20.8366C21.5386 22.9847 20.3549 25.838 20.3359 28.8711L20.3334 29.2784L20.6868 29.4797C22.3902 30.4502 24.3166 30.9607 26.2686 30.9607C26.3223 30.9607 26.3764 30.9604 26.4302 30.9595C28.1318 30.935 29.8152 30.5253 31.3414 29.7691C30.8602 29.4996 30.399 29.196 29.9606 28.8614C27.3005 29.9108 24.2857 29.7814 21.7343 28.4671C21.9825 23.1447 26.3588 18.8812 31.6747 18.8812C33.1532 18.8812 34.6136 19.2087 35.9326 19.831C35.9495 19.3158 35.9251 18.7993 35.859 18.2854" fill="#3D6B99"/>
<path fill-rule="evenodd" clip-rule="evenodd" d="M43.0503 28.7828C43.0098 25.0025 41.1765 21.5535 38.1205 19.4525C38.1228 20.0057 38.0859 20.5585 38.0103 21.1081C40.1818 22.8884 41.5056 25.51 41.6505 28.3821C36.9663 30.8056 31.1246 29.1083 28.4636 24.4772C27.7449 23.2262 27.3042 21.8276 27.1747 20.3984C26.7226 20.646 26.2908 20.9307 25.8832 21.2501C26.0981 22.6254 26.5652 23.961 27.2623 25.1741C28.776 27.8085 31.2095 29.6972 34.1145 30.4922C35.1 30.7619 36.1021 30.8954 37.0987 30.8954C39.0403 30.8954 40.9613 30.3888 42.6995 29.3962L43.0546 29.1932L43.0503 28.7828Z" fill="#3D6B99"/>
<path fill-rule="evenodd" clip-rule="evenodd" d="M32.0844 9.58847L31.7345 9.38281L31.3845 9.58815C29.6553 10.6021 28.2186 12.0558 27.2298 13.792C26.376 15.2915 25.8709 16.9711 25.7524 18.6856C26.2258 18.4037 26.719 18.1558 27.2289 17.9439C27.6681 15.1176 29.3085 12.5633 31.7339 11.0023C36.1884 13.872 37.6533 19.822 34.9776 24.4686C34.253 25.727 33.2623 26.815 32.0885 27.6504C32.5269 27.9183 32.9872 28.1508 33.4656 28.3453C34.5507 27.4638 35.4745 26.384 36.1775 25.1632C39.3014 19.738 37.4652 12.7513 32.0844 9.58847" fill="#3D6B99"/>
<path d="M65.6572 39.6197H78.2432V36.9776H68.6116V32.4861H77.0423V29.8199H68.6116V25.4485H78.1231V22.8064H65.6572V39.6197Z" fill="#15182D"/>
<path d="M84.4623 39.8359C85.5671 39.8359 86.3598 39.5957 87.0803 39.1874V36.8095C86.5039 37.0977 85.9274 37.2418 85.2789 37.2418C84.2941 37.2418 83.7177 36.7855 83.7177 35.6566V29.4356H87.1284V26.9377H83.7177V23.4549H80.8114V26.9377H79.2021V29.4356H80.8114V36.1129C80.8114 38.8991 82.3246 39.8359 84.4623 39.8359Z" fill="#15182D"/>
<path d="M88.8609 39.6197H91.7913V32.462C91.7913 30.4925 92.9682 29.3155 94.6495 29.3155C96.3789 29.3155 97.3637 30.4444 97.3637 32.414V39.6197H100.27V31.5253C100.27 28.595 98.6127 26.6735 95.7544 26.6735C93.7848 26.6735 92.6079 27.7063 91.7913 28.8832V22.0858H88.8609V39.6197Z" fill="#15182D"/>
<path d="M108.391 39.9079C110.721 39.9079 112.378 38.9712 113.579 37.5301L111.874 36.0169C110.865 37.0016 109.856 37.5301 108.439 37.5301C106.566 37.5301 105.101 36.3771 104.788 34.3115H114.108C114.132 34.0233 114.156 33.7591 114.156 33.4949C114.156 29.844 112.114 26.6735 108.079 26.6735C104.452 26.6735 101.882 29.6518 101.882 33.2787V33.3267C101.882 37.2418 104.716 39.9079 108.391 39.9079ZM104.764 32.39C105.029 30.4204 106.278 29.0513 108.055 29.0513C109.976 29.0513 111.081 30.5165 111.274 32.39H104.764Z" fill="#15182D"/>
<path d="M115.85 39.6197H118.78V34.7919C118.78 31.4292 120.557 29.7719 123.103 29.7719H123.271V26.6975C121.038 26.6014 119.572 27.8984 118.78 29.7959V26.9377H115.85V39.6197Z" fill="#15182D"/>
<path d="M124.571 39.6197H127.501V32.462C127.501 30.5165 128.606 29.3155 130.215 29.3155C131.824 29.3155 132.785 30.4204 132.785 32.39V39.6197H135.691V32.462C135.691 30.4204 136.82 29.3155 138.405 29.3155C140.039 29.3155 140.976 30.3964 140.976 32.414V39.6197H143.882V31.5253C143.882 28.4268 142.2 26.6735 139.438 26.6735C137.517 26.6735 136.172 27.5622 135.163 28.9072C134.49 27.5622 133.193 26.6735 131.368 26.6735C129.422 26.6735 128.317 27.7303 127.501 28.8592V26.9377H124.571V39.6197Z" fill="#15182D"/>
<path d="M146.241 24.9921H149.363V22.2299H146.241V24.9921ZM146.337 39.6197H149.267V26.9377H146.337V39.6197Z" fill="#15182D"/>
<path d="M151.841 39.6197H154.771V32.462C154.771 30.4925 155.948 29.3155 157.629 29.3155C159.359 29.3155 160.343 30.4444 160.343 32.414V39.6197H163.25V31.5253C163.25 28.595 161.592 26.6735 158.734 26.6735C156.764 26.6735 155.588 27.7063 154.771 28.8832V26.9377H151.841V39.6197Z" fill="#15182D"/>
<path d="M169.81 39.8359C170.915 39.8359 171.707 39.5957 172.428 39.1874V36.8095C171.851 37.0977 171.275 37.2418 170.626 37.2418C169.641 37.2418 169.065 36.7855 169.065 35.6566V29.4356H172.476V26.9377H169.065V23.4549H166.159V26.9377H164.549V29.4356H166.159V36.1129C166.159 38.8991 167.672 39.8359 169.81 39.8359Z" fill="#15182D"/>
</svg>
