<svg width="189" height="64" viewBox="0 0 189 64" fill="none" xmlns="http://www.w3.org/2000/svg">
<path d="M15.5875 30.9759L33.6665 41.6497V1L15.5875 30.9759Z" fill="#E6ECF2"/>
<path d="M33.6666 1V41.6497L51.7385 30.9759L33.6666 1Z" fill="#CCD9E6"/>
<path d="M15.5875 34.3989L33.6665 59.8511V45.0727L15.5875 34.3989Z" fill="#8CA9C6"/>
<path d="M33.6666 45.0727V59.8511L51.7528 34.3989L33.6666 45.0727Z" fill="#336699"/>
<g opacity="0.25">
<path d="M33.6665 22.7594L15.5875 30.976L33.6665 41.6497L51.7384 30.976L33.6665 22.7594Z" fill="#004080"/>
</g>
<path fill-rule="evenodd" clip-rule="evenodd" d="M37.859 19.2854C36.5368 18.7635 35.1128 18.4908 33.6747 18.4908C30.6521 18.4908 27.8089 19.6791 25.6691 21.8366C23.5386 23.9847 22.3549 26.838 22.3359 29.8711L22.3334 30.2784L22.6868 30.4797C24.3902 31.4502 26.3166 31.9607 28.2686 31.9607C28.3223 31.9607 28.3764 31.9604 28.4302 31.9595C30.1318 31.935 31.8152 31.5253 33.3414 30.7691C32.8602 30.4996 32.399 30.196 31.9606 29.8614C29.3005 30.9108 26.2857 30.7814 23.7343 29.4671C23.9825 24.1447 28.3588 19.8812 33.6747 19.8812C35.1532 19.8812 36.6136 20.2087 37.9326 20.831C37.9495 20.3158 37.9251 19.7993 37.859 19.2854" fill="#3D6B99"/>
<path fill-rule="evenodd" clip-rule="evenodd" d="M45.0503 29.7828C45.0098 26.0025 43.1765 22.5535 40.1205 20.4525C40.1228 21.0057 40.0859 21.5585 40.0103 22.1081C42.1818 23.8884 43.5056 26.51 43.6505 29.3821C38.9663 31.8056 33.1246 30.1083 30.4636 25.4772C29.7449 24.2262 29.3042 22.8276 29.1747 21.3984C28.7226 21.646 28.2908 21.9307 27.8832 22.2501C28.0981 23.6254 28.5652 24.961 29.2623 26.1741C30.776 28.8085 33.2095 30.6972 36.1145 31.4922C37.1 31.7619 38.1021 31.8954 39.0987 31.8954C41.0403 31.8954 42.9613 31.3888 44.6995 30.3962L45.0546 30.1932L45.0503 29.7828Z" fill="#3D6B99"/>
<path fill-rule="evenodd" clip-rule="evenodd" d="M34.0844 10.5885L33.7345 10.3828L33.3845 10.5882C31.6553 11.6021 30.2186 13.0558 29.2298 14.792C28.376 16.2915 27.8709 17.9711 27.7524 19.6856C28.2258 19.4037 28.719 19.1558 29.2289 18.9439C29.6681 16.1176 31.3085 13.5633 33.7339 12.0023C38.1884 14.872 39.6533 20.822 36.9776 25.4686C36.253 26.727 35.2623 27.815 34.0885 28.6504C34.5269 28.9183 34.9872 29.1508 35.4656 29.3453C36.5507 28.4638 37.4745 27.384 38.1775 26.1632C41.3014 20.738 39.4652 13.7513 34.0844 10.5885" fill="#3D6B99"/>
<path d="M67.6572 40.6197H80.2432V37.9776H70.6116V33.4861H79.0423V30.8199H70.6116V26.4485H80.1231V23.8064H67.6572V40.6197Z" fill="#15182D"/>
<path d="M86.4623 40.8359C87.5671 40.8359 88.3598 40.5957 89.0803 40.1874V37.8095C88.5039 38.0977 87.9274 38.2418 87.2789 38.2418C86.2941 38.2418 85.7177 37.7855 85.7177 36.6566V30.4356H89.1284V27.9377H85.7177V24.4549H82.8114V27.9377H81.2021V30.4356H82.8114V37.1129C82.8114 39.8991 84.3246 40.8359 86.4623 40.8359Z" fill="#15182D"/>
<path d="M90.8609 40.6197H93.7913V33.462C93.7913 31.4925 94.9682 30.3155 96.6495 30.3155C98.3789 30.3155 99.3637 31.4444 99.3637 33.414V40.6197H102.27V32.5253C102.27 29.595 100.613 27.6735 97.7544 27.6735C95.7848 27.6735 94.6079 28.7063 93.7913 29.8832V23.0858H90.8609V40.6197Z" fill="#15182D"/>
<path d="M110.391 40.9079C112.721 40.9079 114.378 39.9712 115.579 38.5301L113.874 37.0169C112.865 38.0016 111.856 38.5301 110.439 38.5301C108.566 38.5301 107.101 37.3771 106.788 35.3115H116.108C116.132 35.0233 116.156 34.7591 116.156 34.4949C116.156 30.844 114.114 27.6735 110.079 27.6735C106.452 27.6735 103.882 30.6518 103.882 34.2787V34.3267C103.882 38.2418 106.716 40.9079 110.391 40.9079ZM106.764 33.39C107.029 31.4204 108.278 30.0513 110.055 30.0513C111.976 30.0513 113.081 31.5165 113.274 33.39H106.764Z" fill="#15182D"/>
<path d="M117.85 40.6197H120.78V35.7919C120.78 32.4292 122.557 30.7719 125.103 30.7719H125.271V27.6975C123.038 27.6014 121.572 28.8984 120.78 30.7959V27.9377H117.85V40.6197Z" fill="#15182D"/>
<path d="M126.571 40.6197H129.501V33.462C129.501 31.5165 130.606 30.3155 132.215 30.3155C133.824 30.3155 134.785 31.4204 134.785 33.39V40.6197H137.691V33.462C137.691 31.4204 138.82 30.3155 140.405 30.3155C142.039 30.3155 142.976 31.3964 142.976 33.414V40.6197H145.882V32.5253C145.882 29.4268 144.2 27.6735 141.438 27.6735C139.517 27.6735 138.172 28.5622 137.163 29.9072C136.49 28.5622 135.193 27.6735 133.368 27.6735C131.422 27.6735 130.317 28.7303 129.501 29.8592V27.9377H126.571V40.6197Z" fill="#15182D"/>
<path d="M148.241 25.9921H151.363V23.2299H148.241V25.9921ZM148.337 40.6197H151.267V27.9377H148.337V40.6197Z" fill="#15182D"/>
<path d="M153.841 40.6197H156.771V33.462C156.771 31.4925 157.948 30.3155 159.629 30.3155C161.359 30.3155 162.343 31.4444 162.343 33.414V40.6197H165.25V32.5253C165.25 29.595 163.592 27.6735 160.734 27.6735C158.764 27.6735 157.588 28.7063 156.771 29.8832V27.9377H153.841V40.6197Z" fill="#15182D"/>
<path d="M171.81 40.8359C172.915 40.8359 173.707 40.5957 174.428 40.1874V37.8095C173.851 38.0977 173.275 38.2418 172.626 38.2418C171.641 38.2418 171.065 37.7855 171.065 36.6566V30.4356H174.476V27.9377H171.065V24.4549H168.159V27.9377H166.549V30.4356H168.159V37.1129C168.159 39.8991 169.672 40.8359 171.81 40.8359Z" fill="#15182D"/>
</svg>
