<svg width="141" height="48" viewBox="0 0 141 48" fill="none" xmlns="http://www.w3.org/2000/svg">
<g clip-path="url(#clip0)">
<path d="M11.4407 23.2319L24.9999 31.2372V0.75L11.4407 23.2319Z" fill="#E6ECF2"/>
<path d="M25 0.75V31.2372L38.5539 23.2319L25 0.75Z" fill="#CCD9E6"/>
<path d="M11.4407 25.7992L24.9999 44.8883V33.8045L11.4407 25.7992Z" fill="#8CA9C6"/>
<path d="M25 33.8045V44.8883L38.5646 25.7992L25 33.8045Z" fill="#336699"/>
<g opacity="0.25">
<path d="M24.9999 17.0696L11.4407 23.232L24.9999 31.2373L38.5539 23.232L24.9999 17.0696Z" fill="#004080"/>
</g>
<path fill-rule="evenodd" clip-rule="evenodd" d="M28.1442 14.4641C27.1526 14.0726 26.0846 13.8682 25.006 13.8682C22.739 13.8682 20.6067 14.7594 19.0018 16.3775C17.4039 17.9886 16.5162 20.1286 16.5019 22.4033L16.5 22.7088L16.7651 22.8598C18.0426 23.5876 19.4874 23.9706 20.9514 23.9706C20.9917 23.9706 21.0323 23.9703 21.0726 23.9697C22.3488 23.9513 23.6114 23.644 24.756 23.0769C24.3951 22.8747 24.0492 22.6471 23.7204 22.3961C21.7253 23.1831 19.4642 23.0861 17.5507 22.1004C17.7368 18.1085 21.019 14.9109 25.006 14.9109C26.1149 14.9109 27.2102 15.1566 28.1994 15.6233C28.2121 15.2369 28.1938 14.8495 28.1442 14.4641" fill="#3D6B99"/>
<path fill-rule="evenodd" clip-rule="evenodd" d="M33.5377 22.337C33.5073 19.5018 32.1323 16.9151 29.8403 15.3394C29.842 15.7542 29.8144 16.1689 29.7577 16.581C31.3863 17.9163 32.3792 19.8824 32.4878 22.0365C28.9747 23.8542 24.5934 22.5812 22.5977 19.1079C22.0586 18.1696 21.7281 17.1206 21.631 16.0488C21.2919 16.2344 20.9681 16.448 20.6624 16.6875C20.8236 17.719 21.1739 18.7207 21.6967 19.6305C22.8319 21.6064 24.6571 23.0229 26.8358 23.6191C27.575 23.8214 28.3266 23.9215 29.074 23.9215C30.5302 23.9215 31.9709 23.5415 33.2746 22.7971L33.5409 22.6449L33.5377 22.337Z" fill="#3D6B99"/>
<path fill-rule="evenodd" clip-rule="evenodd" d="M25.3133 7.94135L25.0509 7.78711L24.7884 7.94111C23.4915 8.70157 22.414 9.79186 21.6724 11.094C21.032 12.2186 20.6532 13.4783 20.5643 14.7642C20.9194 14.5528 21.2892 14.3668 21.6717 14.208C22.0011 12.0882 23.2314 10.1725 25.0504 9.00176C28.3913 11.154 29.49 15.6165 27.4832 19.1015C26.9398 20.0453 26.1967 20.8613 25.3164 21.4878C25.6452 21.6887 25.9904 21.8631 26.3492 22.009C27.163 21.3479 27.8559 20.538 28.3831 19.6224C30.7261 15.5535 29.3489 10.3134 25.3133 7.94135" fill="#3D6B99"/>
</g>
<path d="M50.4929 30.4648H59.9324V28.4832H52.7087V25.1145H59.0317V23.1149H52.7087V19.8363H59.8423V17.8548H50.4929V30.4648Z" fill="#15182D"/>
<path d="M64.5967 30.6269C65.4254 30.6269 66.0198 30.4467 66.5603 30.1405V28.3571C66.1279 28.5733 65.6956 28.6813 65.2092 28.6813C64.4706 28.6813 64.0383 28.3391 64.0383 27.4924V22.8267H66.5963V20.9532H64.0383V18.3411H61.8585V20.9532H60.6516V22.8267H61.8585V27.8347C61.8585 29.9243 62.9934 30.6269 64.5967 30.6269Z" fill="#15182D"/>
<path d="M67.8957 30.4648H70.0934V25.0965C70.0934 23.6193 70.9761 22.7366 72.2371 22.7366C73.5342 22.7366 74.2728 23.5833 74.2728 25.0605V30.4648H76.4525V24.3939C76.4525 22.1962 75.2095 20.7551 73.0658 20.7551C71.5886 20.7551 70.7059 21.5297 70.0934 22.4124V17.3143H67.8957V30.4648Z" fill="#15182D"/>
<path d="M82.5434 30.6809C84.2908 30.6809 85.5338 29.9784 86.4345 28.8975L85.1555 27.7626C84.3989 28.5012 83.6423 28.8975 82.5795 28.8975C81.1743 28.8975 80.0755 28.0328 79.8413 26.4836H86.8308C86.8488 26.2674 86.8669 26.0693 86.8669 25.8711C86.8669 23.1329 85.3356 20.7551 82.3092 20.7551C79.5891 20.7551 77.6616 22.9888 77.6616 25.709V25.745C77.6616 28.6813 79.7872 30.6809 82.5434 30.6809ZM79.8233 25.0425C80.0214 23.5653 80.9582 22.5385 82.2912 22.5385C83.7324 22.5385 84.561 23.6373 84.7051 25.0425H79.8233Z" fill="#15182D"/>
<path d="M88.1371 30.4648H90.3349V26.8439C90.3349 24.3219 91.6679 23.0789 93.5775 23.0789H93.7036V20.7731C92.0282 20.701 90.9294 21.6738 90.3349 23.0969V20.9532H88.1371V30.4648Z" fill="#15182D"/>
<path d="M94.6779 30.4648H96.8756V25.0965C96.8756 23.6373 97.7043 22.7366 98.9112 22.7366C100.118 22.7366 100.839 23.5653 100.839 25.0425V30.4648H103.018V25.0965C103.018 23.5653 103.865 22.7366 105.054 22.7366C106.279 22.7366 106.982 23.5473 106.982 25.0605V30.4648H109.161V24.3939C109.161 22.0701 107.9 20.7551 105.829 20.7551C104.388 20.7551 103.379 21.4216 102.622 22.4304C102.118 21.4216 101.145 20.7551 99.7759 20.7551C98.3168 20.7551 97.4881 21.5477 96.8756 22.3944V20.9532H94.6779V30.4648Z" fill="#15182D"/>
<path d="M110.931 19.4941H113.273V17.4224H110.931V19.4941ZM111.003 30.4648H113.201V20.9532H111.003V30.4648Z" fill="#15182D"/>
<path d="M115.13 30.4648H117.328V25.0965C117.328 23.6193 118.211 22.7366 119.472 22.7366C120.769 22.7366 121.507 23.5833 121.507 25.0605V30.4648H123.687V24.3939C123.687 22.1962 122.444 20.7551 120.301 20.7551C118.823 20.7551 117.941 21.5297 117.328 22.4124V20.9532H115.13V30.4648Z" fill="#15182D"/>
<path d="M128.607 30.6269C129.436 30.6269 130.03 30.4467 130.571 30.1405V28.3571C130.138 28.5733 129.706 28.6813 129.22 28.6813C128.481 28.6813 128.049 28.3391 128.049 27.4924V22.8267H130.607V20.9532H128.049V18.3411H125.869V20.9532H124.662V22.8267H125.869V27.8347C125.869 29.9243 127.004 30.6269 128.607 30.6269Z" fill="#15182D"/>
<defs>
<clipPath id="clip0">
<rect width="46.5" height="46.5" fill="white" transform="translate(1.75 0.75)"/>
</clipPath>
</defs>
</svg>
